<?xml version="1.0" encoding="UTF-8" ?>
<!-- Sure Cuts A Lot -->
<!DOCTYPE svg PUBLIC "-//W3C//DTD SVG 1.1//EN" "http://www.w3.org/Graphics/SVG/1.1/DTD/svg11.dtd">
<svg version="1.1" xmlns="http://www.w3.org/2000/svg" xmlns:xlink="http://www.w3.org/1999/xlink" xmlns:scal="http://www.craftedge.com/namespaces/surecutsalot" scal:dpi="72" x="0px" y="0px" width="864px" height="864px" viewbox="0 0 864 864" xml:space="preserve">
<path style="fill:#000000;" d="M 371.485 320.947 C 371.73 321.698 372.659 322.568 371.644 323.099 C 368.315 326.488 365.585 330.404 362.653 334.129 C 358.555 339.47 354.501 344.935 350.216 350.074 C 349.005 349.624 347.215 349.79 346.553 348.518 C 346.89 346.927 348.309 345.811 349.289 344.573 C 353.903 339.32 357.939 333.587 361.95 327.869 C 363.814 325.278 365.388 322.474 366.85 319.663 C 368.145 319.621 369.579 319.342 370.788 319.447 L 371.485 320.947 zM 165.715 246.938 C 167.88 248.445 167.75 251.385 168.301 253.701 C 171.387 270.899 172.925 288.339 175.74 305.57 C 176.269 306.812 177.937 306.563 178.704 307.61 C 179.44 308.245 180.06 309.527 180.957 309.656 C 181.751 308.435 181.311 306.858 181.464 305.475 C 181.508 303.324 181.195 300.794 182.69 299.049 C 184.227 297.519 186.973 297.898 188.083 299.745 C 191.173 302.827 193.862 306.372 197.21 309.155 C 200.2 309.912 203.317 309.361 206.357 309.708 C 210.152 309.908 214.033 309.516 217.594 308.149 C 219.541 307.161 221.79 305.079 223.997 306.767 C 226.515 308.896 229.356 310.82 232.419 312.02 C 235.523 308.454 236.511 303.429 240.021 300.193 C 242.071 298.727 245.011 300.101 245.778 302.357 C 246.955 304.528 247.497 307.225 249.342 308.912 C 250.289 307 250.511 304.219 252.774 303.375 C 255.168 302.873 256.474 305.623 256.322 307.64 C 256.724 310.788 257.005 315.028 257.493 317.49 C 258.455 296.583 259.669 275.684 260.185 254.76 C 260.219 252.658 260.156 250.008 262.006 248.633 C 263.989 247.545 266.073 249.644 266.181 251.601 C 267.541 257.167 268.166 262.877 269.07 268.527 C 270.955 281.537 272.339 294.638 274.454 307.602 C 275.868 308.462 277.517 309.036 278.446 310.509 C 278.847 311.13 279.758 311.606 279.881 310.553 C 280.382 308.708 279.936 306.763 280.158 304.875 C 280.11 302.854 280.695 300.194 283.032 299.772 C 285.347 299.308 286.818 301.493 288.222 302.934 C 290.705 305.558 293.018 308.442 295.772 310.745 C 298.968 310.892 302.185 311.182 305.375 311.032 C 314.703 309.362 323.058 304.61 331.197 299.99 C 336.972 296.867 343.2 293.97 349.905 293.991 C 350.414 294.828 350.58 296.189 350.882 297.247 C 350.103 298.096 348.729 297.818 347.702 298.258 C 338.895 300.483 331.543 306.072 323.418 309.87 C 318.489 312.245 313.301 314.264 307.817 314.827 C 305.146 315.19 302.204 315.133 299.425 315.173 C 297.781 315.021 295.976 315.528 294.468 314.711 C 291.013 312.009 288.028 308.639 284.818 305.745 C 284.023 309.281 284.345 313.078 283.743 316.555 C 281.301 317.065 278.765 315.819 276.81 314.782 C 276.341 317.308 276.612 320.063 275.643 322.435 C 274.476 322.418 272.769 323.002 272.057 321.826 C 269.451 302.25 267.09 282.518 264.099 263.07 C 262.819 290.643 261.744 318.225 260.387 345.795 C 259.195 345.913 257.545 346.673 256.633 345.714 C 255.184 334.817 254.149 323.777 252.781 312.93 C 250.777 314.92 247.451 313.581 246.058 311.507 C 244.311 309.437 243.541 306.598 242.112 304.453 C 239.21 307.934 238.445 312.764 235.285 316.043 C 233.151 317.532 230.671 315.822 228.715 314.827 C 226.383 313.616 224.269 311.874 221.92 310.793 C 219.915 311.91 217.731 312.66 215.458 312.96 C 213.709 313.49 211.881 313.761 210.07 313.478 C 205.318 313.433 200.529 313.714 195.802 313.302 C 194.391 312.535 193.426 311.142 192.227 310.086 C 190.106 307.991 187.941 305.513 185.727 303.78 C 185.382 307.55 185.624 311.463 185.065 315.152 C 182.606 315.394 180.112 314.17 178.139 313.132 C 177.685 315.554 177.902 318.196 177.064 320.482 C 175.905 320.704 174.114 321.342 173.385 320.139 C 170.763 300.6 168.415 280.781 165.428 261.442 L 161.762 344.407 C 160.523 344.249 158.923 344.977 157.953 344.033 C 156.512 333.127 155.482 322.17 154.09 311.257 C 152.113 313.267 148.774 311.956 147.398 309.873 C 145.663 307.766 144.92 304.983 143.419 302.793 C 140.535 306.249 139.771 311.041 136.662 314.314 C 134.52 315.826 132.024 314.183 130.065 313.154 C 127.71 311.943 125.58 310.153 123.19 309.127 C 121.523 309.956 119.809 310.836 117.888 310.735 C 114.583 310.954 111.137 311.392 107.899 311.018 C 108.041 309.833 107.6 308.359 108.145 307.363 C 111.806 307.003 115.595 307.231 119.149 306.225 C 120.883 305.056 123.376 303.511 125.325 305.092 C 127.903 307.227 130.788 309.228 133.895 310.378 C 136.029 308.857 136.546 306.088 137.744 303.898 C 138.79 301.744 139.865 299.281 142.004 298.036 C 144.546 297.069 146.857 299.424 147.596 301.676 C 148.555 303.686 149.238 306.369 151.089 307.554 C 151.58 305.445 151.785 302.609 154.095 301.688 C 156.46 301.124 157.805 303.887 157.636 305.883 C 158.04 309.155 158.281 312.565 158.779 315.75 C 159.802 294.838 160.984 273.929 161.513 252.998 C 161.515 250.835 161.525 248.002 163.683 246.827 C 164.362 246.567 165.037 246.8 165.715 246.938 zM 560.957 246.757 C 563.145 247.639 563.035 250.38 563.137 252.352 C 563.181 260.692 563.749 269.017 564.049 277.349 C 564.622 290.58 565.194 303.93 565.783 317.085 C 566.565 312.422 566.429 307.566 567.884 303.042 C 568.964 300.989 572.368 301.646 572.801 303.882 C 573.264 304.817 573.345 306.283 574.085 306.865 C 576.731 304.324 576.84 299.79 580.336 298.032 C 582.809 297.247 584.895 299.517 585.784 301.585 C 587.425 304.611 588.346 308.177 590.601 310.773 C 594.055 309.259 596.981 306.8 600.204 304.915 C 602.648 303.997 604.544 306.492 606.861 306.633 C 609.937 307.107 613.159 307.049 616.184 307.442 C 616.571 308.323 616.859 309.757 616.084 310.417 C 614.037 311.176 611.812 310.628 609.685 310.764 C 607.391 310.653 604.846 310.961 602.891 309.522 C 601.845 308.812 600.52 309.028 599.661 309.919 C 596.722 311.996 593.672 314.279 590.081 314.977 C 587.353 314.893 586.175 312.05 585.209 309.926 C 584.078 307.707 583.319 304.993 581.766 303.18 C 579.355 306.136 578.266 310.515 574.462 312.079 C 573.21 312.598 571.699 311.954 570.714 311.474 C 569.206 322.394 568.272 333.433 566.875 344.333 C 565.67 344.298 563.942 344.847 563.162 343.733 C 561.689 316.206 560.498 288.547 559.297 261.082 C 556.265 280.935 553.944 300.887 551.455 320.812 C 550.294 320.879 548.753 321.606 547.831 320.738 C 546.991 318.336 547.028 315.566 546.183 313.271 C 544.265 314.624 541.711 315.715 539.423 315.263 C 539.226 311.471 539.37 307.473 539.023 303.809 C 535.562 306.676 532.763 310.299 529.345 313.173 C 518.51 313.502 507.634 313.801 496.815 313.447 C 493.428 310.381 490.343 306.723 486.951 303.84 C 486.574 307.628 486.878 311.569 486.265 315.271 C 483.81 315.433 481.341 314.35 479.358 313.192 C 478.9 315.722 479.118 318.508 478.203 320.868 C 477.037 320.841 475.298 321.417 474.6 320.252 C 472.013 300.836 469.685 281.263 466.711 261.975 C 465.325 289.186 464.306 316.414 462.962 343.627 C 461.95 344.187 460.399 345.046 459.41 344.259 C 457.74 333.335 456.722 322.328 455.312 311.37 C 453.193 313.462 449.704 311.911 448.381 309.652 C 446.831 307.714 446.097 305.029 444.753 303.141 C 441.664 306.517 440.915 311.444 437.655 314.667 C 435.541 315.899 433.262 314.247 431.377 313.308 C 429.079 312.107 426.989 310.386 424.65 309.36 C 422.784 310.067 420.921 310.967 418.872 310.837 C 418.194 310.918 417.038 311.105 416.73 310.868 C 414.597 313.067 412.114 315.315 409.555 316.754 C 412.985 311.541 416.489 306.35 419.31 300.77 C 422.695 294.248 425.16 287.231 426.88 280.125 C 427.255 281.975 427.196 284.082 427.186 286.035 C 426.899 293.239 424.456 300.405 420.428 306.29 C 422.077 305.189 424.304 303.769 426.265 305.002 C 428.897 307.172 431.833 309.201 434.964 310.458 C 438.072 306.894 439.052 301.867 442.556 298.625 C 444.865 296.965 448.012 298.949 448.619 301.443 C 449.604 303.388 450.282 305.996 451.893 307.291 C 452.856 305.357 453.099 302.471 455.489 301.754 C 457.704 301.355 458.928 303.911 458.861 305.788 C 459.258 309.294 459.562 313.172 460.063 316.44 C 460.994 295.345 462.213 274.258 462.73 253.147 C 462.748 251.029 462.714 248.316 464.677 247.019 C 466.725 246.054 468.659 248.183 468.793 250.137 C 469.974 255.571 470.676 261.096 471.548 266.585 C 473.491 279.77 474.853 293.063 477.05 306.196 C 477.957 307.151 479.642 306.815 480.319 308.127 C 480.802 308.623 481.368 309.666 482.024 309.568 C 483.14 307.803 482.471 305.612 482.687 303.653 C 482.576 301.528 483.191 298.742 485.627 298.262 C 488.179 297.788 489.771 300.295 491.265 301.92 C 493.578 304.25 495.586 306.997 498.182 308.976 C 507.793 309.448 517.451 309.761 527.054 309.405 C 531.077 306.006 534.346 301.776 538.368 298.404 C 540.972 297.336 543.649 300.119 543.22 302.714 C 543.352 304.96 542.978 307.478 543.469 309.549 C 545.192 308.766 546.366 307.015 548.272 306.608 C 549.978 305.234 549.25 302.725 549.794 300.827 C 552.06 283.798 553.913 266.69 557.169 249.812 C 557.658 248.086 558.932 246.34 560.957 246.757 zM 416.943 258.435 C 418.632 260.384 420.434 262.374 421.512 264.718 C 417.803 278.432 412.936 291.941 405.694 304.215 C 402.283 310.198 398.441 315.921 394.502 321.563 C 394.51 322.151 394.158 322.696 393.449 322.615 C 390.555 322.931 387.523 323.008 384.689 322.608 C 386.567 319.743 388.835 317.142 390.75 314.295 C 397.879 304.226 404.132 293.468 408.544 281.92 C 411.617 274.107 414.14 266.082 416.312 257.978 L 416.943 258.435 zM 409.892 252.51 C 411.717 253.759 413.618 255.074 415.09 256.694 C 413.743 262.2 412.024 267.615 410.248 272.997 C 407.09 282.458 403.127 291.668 398.022 300.249 C 393.847 307.539 389.049 314.454 383.883 321.073 C 383.371 321.472 383.656 322.176 383.907 322.309 C 381.713 322.39 379.532 321.695 377.419 321.139 C 376.662 321.029 376.634 320.571 377.161 320.099 C 381.636 313.625 386.124 307.143 389.94 300.25 C 393.135 294.698 396.308 289.115 398.747 283.18 C 402.992 273.412 406.419 263.262 409.226 253.017 L 409.892 252.51 zM 422.867 266.835 C 424.309 269.832 425.698 272.963 426.155 276.277 C 424.4 285.687 420.999 294.794 416.388 303.182 C 413.384 308.377 410.098 313.417 406.574 318.273 C 405.092 319.661 402.97 320.102 401.113 320.826 C 399.466 321.353 397.628 321.916 396.033 322.188 C 396.942 320.266 398.439 318.662 399.546 316.841 C 405.806 307.464 411.525 297.661 415.66 287.145 C 418.33 280.565 420.494 273.739 422.461 266.957 L 422.482 266.951 L 422.504 266.944 L 422.525 266.938 L 422.547 266.931 L 422.568 266.925 L 422.59 266.918 L 422.611 266.912 L 422.633 266.905 L 422.655 266.899 L 422.676 266.892 L 422.698 266.886 L 422.719 266.879 L 422.741 266.873 L 422.762 266.867 L 422.784 266.86 L 422.805 266.854 L 422.827 266.847 L 422.849 266.841 L 422.867 266.835 zM 354.572 271.552 C 356.354 272.012 358.306 272.291 359.982 272.862 C 362.221 281.26 364.705 289.634 368.423 297.514 C 371.237 303.693 374.609 309.618 377.951 315.502 C 377.507 317.243 376.252 318.696 375.167 320.1 C 373.976 320.358 374.139 318.699 373.428 318.09 C 366.845 307.481 361.03 296.301 357.335 284.337 C 356.018 280.11 354.773 275.769 353.852 271.487 L 354.572 271.552 zM 352.645 273.427 C 354.428 279.61 356.057 285.852 358.405 291.855 C 361.97 301.418 367.03 310.448 372.275 319.092 C 369.774 317.685 367.063 316.432 365.04 314.363 C 362.121 309.664 359.62 304.703 357.359 299.656 C 354.521 292.924 352.338 285.881 351.133 278.672 C 351.241 276.859 351.782 274.952 352.305 273.301 L 352.326 273.309 L 352.347 273.316 L 352.368 273.324 L 352.389 273.332 L 352.41 273.34 L 352.431 273.348 L 352.452 273.356 L 352.473 273.364 L 352.494 273.371 L 352.516 273.379 L 352.537 273.387 L 352.558 273.395 L 352.579 273.403 L 352.6 273.411 L 352.621 273.419 L 352.642 273.426 L 352.645 273.427 zM 362.822 273.548 C 364.245 274.03 365.874 274.316 367.165 274.931 C 369.029 282.184 371.28 289.372 374.612 296.1 C 376.845 300.84 379.37 305.438 381.794 310.077 C 381.775 311.425 380.355 312.565 379.708 313.787 C 379.113 315.058 378.575 313.269 378.129 312.723 C 371.755 301.894 366.2 290.47 362.991 278.275 C 362.609 276.733 361.992 275.017 361.832 273.562 L 362.822 273.548 zM 350.815 284.805 C 352.761 291.725 354.89 298.646 358.248 305.033 C 359.205 306.997 360.35 309.118 361.248 310.955 C 359.155 309.104 357.568 306.706 356.084 304.345 C 352.734 298.845 350.936 292.456 350.626 286.043 C 350.719 285.722 350.336 284.669 350.815 284.805 zM 370.173 275.955 C 371.96 276.616 373.852 277.227 375.486 278.155 C 376.251 279.666 376.173 281.478 376.672 283.096 C 378.049 289.163 380.471 294.954 383.665 300.286 C 384.34 301.589 385.387 302.842 385.885 304.144 C 385.095 305.647 384.132 307.222 383.143 308.507 C 381.693 307.082 380.947 305.08 379.909 303.349 C 376.443 296.68 373.057 289.915 370.91 282.687 C 370.247 280.454 369.39 278.102 369.062 275.883 L 370.173 275.955 zM 378.137 279.345 C 380.379 280.507 382.69 281.743 384.766 283.086 C 385.475 288.172 387.245 293.12 389.916 297.485 C 388.897 299.136 388.007 301.16 386.842 302.541 C 383.546 297.597 380.823 292.214 379.091 286.516 C 378.448 284.115 377.711 281.546 377.424 279.175 L 378.137 279.345 zM 387.528 284.767 C 389.742 286.3 392.12 287.768 394.112 289.512 C 393.186 291.694 391.993 293.869 390.74 295.819 C 388.569 292.405 387.2 288.486 386.545 284.505 L 387.528 284.767 zM 359.717 263.888 C 366.643 265.317 373.526 267.224 379.956 270.201 C 385.215 272.799 390.329 275.727 394.963 279.341 C 395.886 280.116 397.157 280.807 397.819 281.691 C 396.876 283.786 395.968 286.104 394.84 287.985 C 391.899 286.006 389.015 283.912 385.959 282.096 C 380.557 278.662 374.753 275.886 368.686 273.844 C 363.895 272.148 358.935 271.01 353.984 269.909 C 353.243 269.643 354.181 268.656 354.324 268.12 C 355.187 266.528 356.044 264.788 357.016 263.346 L 359.717 263.888 zM 363.895 256.47 C 370.082 257.431 376.159 259.143 381.977 261.455 C 388.707 264.171 394.819 268.252 400.373 272.885 C 401.002 273.292 401.205 273.889 400.741 274.512 C 399.97 276.248 399.4 278.178 398.487 279.784 C 397.439 279.775 396.721 278.614 395.824 278.111 C 390.705 274.212 385.072 271.023 379.282 268.242 C 372.453 265.374 365.272 263.428 358.007 262.035 C 359.351 259.953 361.108 258.066 362.972 256.477 L 363.895 256.47 zM 372.13 250.868 C 379.082 252.473 386.07 254.265 392.536 257.342 C 396.595 259.321 400.517 261.76 403.824 264.81 C 403.465 267.232 402.527 269.559 401.627 271.83 C 399.197 270.189 397.009 268.186 394.538 266.586 C 386.535 261.031 377.23 257.677 367.76 255.634 C 366.869 255.373 365.682 255.279 364.97 254.951 C 365.366 253.95 366.639 253.571 367.433 252.87 C 368.745 252.093 369.993 250.944 371.487 250.636 L 371.508 250.643 L 371.529 250.651 L 371.551 250.658 L 371.572 250.666 L 371.593 250.674 L 371.614 250.681 L 371.635 250.689 L 371.656 250.697 L 371.678 250.704 L 371.699 250.712 L 371.72 250.72 L 371.741 250.727 L 371.762 250.735 L 371.783 250.742 L 371.805 250.75 L 371.826 250.758 L 371.847 250.765 L 371.868 250.773 L 371.889 250.781 L 371.91 250.788 L 371.932 250.796 L 371.953 250.804 L 371.974 250.811 L 371.995 250.819 L 372.016 250.826 L 372.037 250.834 L 372.059 250.842 L 372.08 250.849 L 372.101 250.857 L 372.122 250.865 L 372.13 250.868 zM 383.245 246.78 C 383.953 247.704 385.392 247.503 386.429 247.878 C 392.661 249.24 398.771 251.611 403.787 255.633 C 404.555 256.395 405.884 256.846 406.149 257.947 C 405.869 259.757 405.22 261.667 404.545 263.27 C 401.122 260.67 397.632 258.104 393.722 256.267 C 387.354 253.136 380.439 251.386 373.605 249.622 C 373.306 249.405 374.511 249.131 374.847 248.933 C 377.457 248.026 380.126 247.109 382.877 246.796 L 382.899 246.795 L 382.922 246.794 L 382.944 246.793 L 382.967 246.792 L 382.989 246.791 L 383.012 246.79 L 383.034 246.789 L 383.057 246.788 L 383.079 246.787 L 383.102 246.786 L 383.124 246.785 L 383.147 246.784 L 383.169 246.783 L 383.192 246.782 L 383.214 246.781 L 383.237 246.78 L 383.245 246.78 zM 437.553 221.333 C 439.81 222.029 439.921 224.779 440.172 226.739 C 440.424 227.655 440.318 228.513 439.765 229.297 C 436.456 236.29 431.89 242.578 427.715 249.064 C 425.805 251.871 424.123 254.832 422.242 257.65 C 421.605 258.721 419.941 259.232 419.204 257.976 C 418.583 257.059 418.058 255.886 417.851 254.874 C 423.328 247.707 429.175 240.74 433.559 232.822 C 433.95 232.193 434.483 230.9 433.225 231.157 C 431.471 231.057 429.635 232.094 427.957 231.371 C 427.254 230.2 428.57 228.931 429.111 227.905 C 430.972 225.322 433.017 222.447 436.158 221.385 C 436.619 221.235 437.08 221.303 437.553 221.333 zM 389.68 246.247 C 396.17 246.407 402.682 248.204 408.241 251.503 C 407.567 252.853 407.424 254.635 406.807 255.849 C 405.316 255.259 404.247 253.901 402.848 253.103 C 398.639 250.159 393.819 248.243 388.87 246.952 C 388.272 246.75 387.096 246.548 386.859 246.38 C 387.789 246.21 388.739 246.254 389.68 246.247 z"/>

</svg>